<svg xmlns="http://www.w3.org/2000/svg" viewBox="0 0 582.4 261.5"><defs><style>.cls-1{fill:#eae9f0;}.cls-2{fill:#b38aae;}.cls-3{fill:#ab7da5;}.cls-4{fill:#f4f6f7;}.cls-5{fill:#f7754f;}.cls-6{fill:#ff6e61;}.cls-7{fill:#e8574c;}.cls-8{fill:#fdc456;}.cls-9{fill:#f7b346;}.cls-10{fill:none;}</style></defs><title>Asset 1</title><g id="Layer_2" data-name="Layer 2"><g id="Layer_1-2" data-name="Layer 1"><path class="cls-1" d="M501.8,153.5a5.5,5.5,0,0,0-2.8,2.4,13.9,13.9,0,0,0-1.6,3.5,22,22,0,0,0-.6,3.7V165a6.3,6.3,0,0,0,.3,1.9,9.7,9.7,0,0,1-.5-3.8,15.8,15.8,0,0,1,.5-3.8,10.4,10.4,0,0,1,1.7-3.5,4.4,4.4,0,0,1,1.3-1.4A4,4,0,0,1,501.8,153.5Z"/><path class="cls-2" d="M499,156.4a7.1,7.1,0,0,1,1.7-2.1,5.6,5.6,0,0,1,.5,2.7C501.3,158.2,498.4,157.5,499,156.4Z"/><path class="cls-2" d="M518,139.2c-1.7,7.1-10.5,17.8-17.5,16.1s-9.8-15.4-8-22.5a13.1,13.1,0,0,1,25.5,6.4Z"/><path class="cls-3" d="M516.4,141.2c-1.7,6-9.8,14.9-15.5,13.3s3.2-3.1,4.9-9.1,3.6-9.6,7.3-11C518.8,132.3,518.2,135.2,516.4,141.2Z"/><path class="cls-4" d="M506.7,126.8h-.9a1.4,1.4,0,0,1-1.4-1.4,1.4,1.4,0,0,1,1.4-1.5h.9a1.5,1.5,0,0,1,1.4,1.5A1.4,1.4,0,0,1,506.7,126.8Z"/><path class="cls-4" d="M496.1,134H496a1.5,1.5,0,0,1-1.4-1.5c.2-3.7,4-7.4,7-7.8a1.4,1.4,0,0,1,1.6,1.2,1.5,1.5,0,0,1-1.3,1.6c-1.7.2-4.3,2.9-4.4,5.1A1.4,1.4,0,0,1,496.1,134Z"/><path class="cls-1" d="M13.7,233.4a5.8,5.8,0,0,0-2.9,1.7A13.4,13.4,0,0,0,9,237.9a18.6,18.6,0,0,0-1.5,6.5,11.9,11.9,0,0,0,.4,3.3,4.2,4.2,0,0,0,.9,1.4,2.2,2.2,0,0,0,1.3.8,4.3,4.3,0,0,0,1.6-.1l1.5-.7a4.7,4.7,0,0,0,2.3-2.3,2.1,2.1,0,0,0,.3-1.5,2,2,0,0,0-.6-1.5,1.5,1.5,0,0,0-1.4-.5,2.3,2.3,0,0,0-1.1,1.1,6.7,6.7,0,0,0-.6,1.5,9.9,9.9,0,0,0-.2,1.7,8.6,8.6,0,0,0-.1,1.6v1.7a13,13,0,0,1-.8,3.4,12.2,12.2,0,0,1-1.7,2.9,13.6,13.6,0,0,1-2.4,2.4l-1.3,1-.3.3c-.1.1-.1.1-.1.2v.2l.8.2a1.1,1.1,0,0,1-.8-.2c-.1,0-.1-.1-.1-.2s0-.1.1-.2l.3-.3,1.3-1.1a17.5,17.5,0,0,0,2.3-2.4,11.8,11.8,0,0,0,1.6-2.9,13,13,0,0,0,.7-3.3,4.8,4.8,0,0,0,0-1.7c0-.5.1-1.1.1-1.7a12.2,12.2,0,0,1,.3-1.7,9.8,9.8,0,0,1,.5-1.6,2.4,2.4,0,0,1,1.4-1.2h.9a1.8,1.8,0,0,1,.7.5,2.6,2.6,0,0,1,.7,1.6,2.9,2.9,0,0,1-.3,1.8,5.6,5.6,0,0,1-2.4,2.4l-1.6.7a5,5,0,0,1-1.7.1,2.6,2.6,0,0,1-1.6-.9,4.4,4.4,0,0,1-.8-1.5,9.7,9.7,0,0,1-.5-3.4,17,17,0,0,1,1.7-6.6,10.1,10.1,0,0,1,1.9-2.7A5.1,5.1,0,0,1,13.7,233.4Z"/><path class="cls-5" d="M10.5,236.1c.8-1,1.7-2,2-1.9s.3,1.4.3,2.7S9.7,237.2,10.5,236.1Z"/><path class="cls-6" d="M31.9,220.1c-2.5,7.1-12.6,17.5-19.8,15s-8.6-16.9-6.1-24a13.6,13.6,0,0,1,17.4-8.5A13.8,13.8,0,0,1,31.9,220.1Z"/><path class="cls-7" d="M30,222c-2.4,6.1-11.5,14.6-17.4,12.3s3.6-2.9,6-8.9,4.6-9.7,8.6-10.8C33.3,212.9,32.4,215.9,30,222Z"/><path class="cls-4" d="M21.3,206.1h-1a1.5,1.5,0,0,1-1.4-1.6,1.6,1.6,0,0,1,1.6-1.4h1a1.6,1.6,0,0,1,1.3,1.7A1.4,1.4,0,0,1,21.3,206.1Z"/><path class="cls-4" d="M9.7,212.7H9.5A1.5,1.5,0,0,1,8.2,211c.5-3.9,4.8-7.4,7.9-7.6a1.6,1.6,0,0,1,1.6,1.5,1.5,1.5,0,0,1-1.5,1.5c-1.8.1-4.7,2.7-5,4.9A1.6,1.6,0,0,1,9.7,212.7Z"/><path class="cls-1" d="M24.8,37.9A9,9,0,0,0,23,42.2a10.2,10.2,0,0,0,.2,4.6,21.5,21.5,0,0,0,1.4,4.5l1,2.1a13.7,13.7,0,0,0,1.3,2,13.3,13.3,0,0,1-1.4-1.9,22.5,22.5,0,0,1-1.2-2.1,17,17,0,0,1-1.5-4.5,11.1,11.1,0,0,1-.1-4.8,9.4,9.4,0,0,1,.7-2.2A9,9,0,0,1,24.8,37.9Z"/><path class="cls-8" d="M23.8,42.9c-.1-1.5.1-3.2.4-3.3s1.4,1.2,2.3,2.5S23.8,44.6,23.8,42.9Z"/><path class="cls-8" d="M32.7,11.6c2.9,8.8.7,26.3-8.1,29.1S3.7,30.7.8,21.9A16.8,16.8,0,0,1,32.7,11.6Z"/><path class="cls-9" d="M32.3,14.8c2.2,7.7-.5,22.7-7.8,24.8s1.3-5.4-.8-13.1S21,13.8,24.1,9.7C28.8,3.5,30.1,7.2,32.3,14.8Z"/><path class="cls-4" d="M10.1,6.7a1.8,1.8,0,0,1-1.5-.8,1.8,1.8,0,0,1,.5-2.6l1-.6a1.8,1.8,0,0,1,1.8,3.2l-.8.5A1.9,1.9,0,0,1,10.1,6.7Z"/><path class="cls-4" d="M4.5,21.1a1.9,1.9,0,0,1-1.6-.9C.6,16,2.1,9.5,5,7a2,2,0,0,1,2.6.2,1.8,1.8,0,0,1-.2,2.6c-1.7,1.5-2.7,6.1-1.3,8.5a1.8,1.8,0,0,1-.7,2.5A1.6,1.6,0,0,1,4.5,21.1Z"/><path class="cls-1" d="M565.5,78.2a5.6,5.6,0,0,1,2.1,2.9,13.6,13.6,0,0,1,.7,3.5,17.1,17.1,0,0,1-1.2,7.1,10.5,10.5,0,0,1-1.8,3.1,3.6,3.6,0,0,1-1.4,1.1,2.5,2.5,0,0,1-1.7.2,3.1,3.1,0,0,1-1.5-.8,8,8,0,0,1-1.3-1.3,5.4,5.4,0,0,1-1.3-3.2,2.9,2.9,0,0,1,.4-1.6,1.8,1.8,0,0,1,1.2-1.2,1.4,1.4,0,0,1,1.5,0,2.3,2.3,0,0,1,.7,1.5,5.5,5.5,0,0,1-.1,1.8,11.6,11.6,0,0,1-.4,1.8l-.6,1.7a8.7,8.7,0,0,0-.7,1.7,14.3,14.3,0,0,0-.6,3.6,10.8,10.8,0,0,0,.5,3.6,14.3,14.3,0,0,0,1.4,3.4l.9,1.6c.1.1.1.3.2.4v.2c0,.1-.1.1-.2.2h0a.2.2,0,0,0,.2-.2v-.2a.5.5,0,0,0-.2-.4c-.2-.6-.6-1.1-.8-1.6a14.3,14.3,0,0,1-1.4-3.4,14.7,14.7,0,0,1-.4-3.6,13.6,13.6,0,0,1,.7-3.5,8.7,8.7,0,0,1,.7-1.7l.6-1.8a8.4,8.4,0,0,0,.5-1.7,6,6,0,0,0,0-1.9,2,2,0,0,0-.8-1.7l-.9-.4a1.7,1.7,0,0,0-1,.3,2.5,2.5,0,0,0-1.4,1.3,3.9,3.9,0,0,0-.4,1.8,5.9,5.9,0,0,0,1.5,3.4,8.6,8.6,0,0,0,1.3,1.4,3.4,3.4,0,0,0,1.7.8,2.2,2.2,0,0,0,1.8-.2,4.4,4.4,0,0,0,1.5-1.2,9.2,9.2,0,0,0,1.8-3.2,16,16,0,0,0,1.1-7.2,15.3,15.3,0,0,0-.7-3.6A6.7,6.7,0,0,0,565.5,78.2Z"/><path class="cls-5" d="M567.5,82.2a6.5,6.5,0,0,0-1.1-2.7c-.3-.1-1,1.3-1.4,2.6S567.8,83.6,567.5,82.2Z"/><path class="cls-6" d="M552.9,57.4c-.5,8.2,5.3,22.6,13.4,23.1s15.6-13.2,16.1-21.3a14.8,14.8,0,1,0-29.5-1.8Z"/><path class="cls-7" d="M553.9,60.1c-.1,7,5.5,19.3,12.3,19.4s-2.4-4.3-2.3-11.3-.6-11.5-4.1-14.3C554.4,49.7,554.1,53.1,553.9,60.1Z"/><path class="cls-4" d="M569.1,47.8h.2l.9.3a1.6,1.6,0,0,0,2-1,1.7,1.7,0,0,0-1-2.1l-1-.3a1.7,1.7,0,0,0-2,1.1A1.6,1.6,0,0,0,569.1,47.8Z"/><path class="cls-4" d="M578,59.2h.2a1.5,1.5,0,0,0,2-1.1c1.1-4.1-1.7-9.3-4.7-10.8a1.8,1.8,0,0,0-2.2.8,1.7,1.7,0,0,0,.8,2.2c1.8.8,3.6,4.6,3,7A1.6,1.6,0,0,0,578,59.2Z"/><path class="cls-10" d="M84.8,119.3a4.1,4.1,0,0,0-1.7,2.2,9.6,9.6,0,0,0-.7,2.8,15.1,15.1,0,0,0,.1,3,8.9,8.9,0,0,0,.3,1.4,7.8,7.8,0,0,0,.5,1.4,9.4,9.4,0,0,1-1-2.8,10.1,10.1,0,0,1-.1-3,10.2,10.2,0,0,1,.7-2.9,8.3,8.3,0,0,1,.8-1.2A3.1,3.1,0,0,1,84.8,119.3Z"/><path class="cls-10" d="M83.2,121.9a5.4,5.4,0,0,1,.9-1.8c.2,0,.6,1,.8,1.9S82.8,122.8,83.2,121.9Z"/><path class="cls-10" d="M95,106.2c-.3,5.5-5.3,14.9-10.9,14.6s-9.6-10.1-9.3-15.7A10.1,10.1,0,1,1,95,106.2Z"/><path class="cls-10" d="M94.1,107.9c-.5,4.8-5.2,12.7-9.8,12.2s1.9-2.7,2.4-7.5,1.3-7.7,3.9-9.4S94.5,103.1,94.1,107.9Z"/><path class="cls-10" d="M84.6,98.4h0l-.6.2h-.1a1.3,1.3,0,0,1-1.3-.9,1.1,1.1,0,0,1,.9-1.3h.7a1.1,1.1,0,0,1,1.3.9A1,1,0,0,1,84.6,98.4Z"/><path class="cls-10" d="M77.7,105.5h-.1a1.1,1.1,0,0,1-1.2-1c-.5-2.8,1.8-6.2,4-6.9a1.1,1.1,0,0,1,.7,2.1,4.9,4.9,0,0,0-2.5,4.5A1.2,1.2,0,0,1,77.7,105.5Z"/></g></g></svg>