<svg xmlns="http://www.w3.org/2000/svg" xmlns:xlink="http://www.w3.org/1999/xlink" viewBox="0 0 593.5 314.8"><defs><style>.cls-1,.cls-3,.cls-4,.cls-5{fill:none;}.cls-2{clip-path:url(#clip-path);}.cls-3{stroke:#2f194f;}.cls-3,.cls-4,.cls-5{stroke-linecap:square;stroke-miterlimit:10;}.cls-4{stroke:#b38aae;}.cls-5{stroke:#ff6e61;}.cls-6{fill:#8288b8;}</style><clipPath id="clip-path" transform="translate(-32.9 -26.1)"><rect class="cls-1" width="649.1" height="364.96"/></clipPath></defs><title>Asset 2</title><g id="Layer_2" data-name="Layer 2"><g id="Layer_1-2" data-name="Layer 1"><g class="cls-2"><path class="cls-3" d="M88,235.4a2.6,2.6,0,0,1-1.6,3.2,2.5,2.5,0,0,1-3.2-1.6,2.4,2.4,0,0,1,1.6-3.2A2.5,2.5,0,0,1,88,235.4Z" transform="translate(-32.9 -26.1)"/><line class="cls-3" x1="54.8" y1="216.4" x2="62.3" y2="239.2"/><line class="cls-3" x1="43" y1="180.9" x2="50.5" y2="203.6"/><line class="cls-3" x1="48.5" y1="215.6" x2="34.1" y2="234.5"/><line class="cls-3" x1="71.2" y1="185.6" x2="56.9" y2="204.5"/><line class="cls-3" x1="59" y1="211.9" x2="82.2" y2="218.7"/><line class="cls-3" x1="23.2" y1="201.5" x2="46.3" y2="208.2"/><line class="cls-3" x1="47.3" y1="239.8" x2="46.8" y2="242.9"/><line class="cls-3" x1="50.9" y1="219.7" x2="48.3" y2="234.7"/><line class="cls-3" x1="57.1" y1="185.3" x2="54.3" y2="200.6"/><line class="cls-3" x1="58.5" y1="177.2" x2="58.1" y2="179.7"/><line class="cls-3" x1="25.1" y1="221.4" x2="21.8" y2="222.7"/><line class="cls-3" x1="43.9" y1="213.7" x2="29.5" y2="219.6"/><line class="cls-3" x1="75.9" y1="200.5" x2="61.6" y2="206.4"/><line class="cls-3" x1="83.6" y1="197.4" x2="80.8" y2="198.5"/><line class="cls-3" x1="74.1" y1="231.3" x2="76.4" y2="233.5"/><line class="cls-3" x1="59.7" y1="217.1" x2="70.8" y2="228"/><line class="cls-3" x1="34.6" y1="192.2" x2="45.8" y2="203.3"/><line class="cls-3" x1="30.6" y1="188.2" x2="30.9" y2="188.5"/><line class="cls-3" x1="28.9" y1="186.6" x2="30.9" y2="188.5"/><path class="cls-4" d="M552.6,106.3a1.6,1.6,0,0,1-2,1.1,1.6,1.6,0,0,1-1.2-2,1.6,1.6,0,0,1,2-1.1A1.6,1.6,0,0,1,552.6,106.3Z" transform="translate(-32.9 -26.1)"/><line class="cls-4" x1="517" y1="83.9" x2="513.2" y2="99"/><line class="cls-4" x1="522.9" y1="60.5" x2="519.2" y2="75.4"/><line class="cls-4" x1="513.9" y1="81.3" x2="499.5" y2="86.6"/><line class="cls-4" x1="536.7" y1="72.8" x2="522.3" y2="78.2"/><line class="cls-4" x1="520.9" y1="82.9" x2="531.2" y2="94.7"/><line class="cls-4" x1="505" y1="64.8" x2="515.2" y2="76.5"/><line class="cls-4" x1="504.8" y1="94.1" x2="503.5" y2="95.6"/><line class="cls-4" x1="513.8" y1="84.4" x2="507.1" y2="91.7"/><line class="cls-4" x1="529.1" y1="67.7" x2="522.3" y2="75.2"/><line class="cls-4" x1="532.7" y1="63.8" x2="531.6" y2="65"/><line class="cls-4" x1="499.1" y1="76.3" x2="496.8" y2="75.9"/><line class="cls-4" x1="512.1" y1="78.6" x2="502.1" y2="76.9"/><line class="cls-4" x1="534.1" y1="82.6" x2="524.2" y2="80.8"/><line class="cls-4" x1="539.4" y1="83.5" x2="537.4" y2="83.2"/><line class="cls-4" x1="522.4" y1="98.8" x2="522.9" y2="100.8"/><line class="cls-4" x1="519.5" y1="86" x2="521.8" y2="95.8"/><line class="cls-4" x1="514.4" y1="63.7" x2="516.7" y2="73.6"/><line class="cls-4" x1="513.6" y1="60.1" x2="513.7" y2="60.4"/><line class="cls-4" x1="513.3" y1="58.7" x2="513.7" y2="60.4"/><path class="cls-5" d="M553.2,291.4a3,3,0,1,1-5.7-1.7,2.9,2.9,0,0,1,3.7-2A3,3,0,0,1,553.2,291.4Z" transform="translate(-32.9 -26.1)"/><line class="cls-5" x1="515.1" y1="271.9" x2="506.8" y2="298.7"/><line class="cls-5" x1="528" y1="230.2" x2="519.8" y2="256.8"/><line class="cls-5" x1="509.7" y1="266.8" x2="483.2" y2="275.1"/><line class="cls-5" x1="551.7" y1="253.8" x2="525.2" y2="262"/><line class="cls-5" x1="522.2" y1="270.5" x2="539.6" y2="292.6"/><line class="cls-5" x1="495.2" y1="236.2" x2="512.6" y2="258.3"/><line class="cls-5" x1="492.2" y1="289.1" x2="489.5" y2="291.7"/><line class="cls-5" x1="509.2" y1="272.4" x2="496.5" y2="284.9"/><line class="cls-5" x1="538.4" y1="243.9" x2="525.4" y2="256.6"/><line class="cls-5" x1="545.3" y1="237.2" x2="543.2" y2="239.2"/><line class="cls-5" x1="483.6" y1="256.5" x2="479.4" y2="255.5"/><line class="cls-5" x1="506.7" y1="261.9" x2="489" y2="257.8"/><line class="cls-5" x1="546" y1="271.1" x2="528.4" y2="267"/><line class="cls-5" x1="555.4" y1="273.3" x2="551.9" y2="272.5"/><line class="cls-5" x1="523.4" y1="299.2" x2="524.1" y2="302.9"/><line class="cls-5" x1="519.4" y1="275.9" x2="522.5" y2="293.8"/><line class="cls-5" x1="512.4" y1="235.2" x2="515.5" y2="253.3"/><line class="cls-5" x1="511.2" y1="228.7" x2="511.3" y2="229.2"/><line class="cls-5" x1="510.8" y1="226" x2="511.3" y2="229.2"/><path class="cls-6" d="M127.9,49.2a4.6,4.6,0,0,1-2.1-.8,12.2,12.2,0,0,0-1.9-1.2c-1.4-.7-2.2-.2-2.4,1.3a7.5,7.5,0,0,0,0,1.5,15,15,0,0,1-.2,2,2.7,2.7,0,0,1-3.9,2,9.3,9.3,0,0,1-1.9-1.1c-.8-.5-1.6-1.4-2.7-.8s-.8,1.7-.8,2.7a17.9,17.9,0,0,1-.2,2.3,2.8,2.8,0,0,1-3.7,2,6.3,6.3,0,0,1-2.1-1.2,3.9,3.9,0,0,0-2.4-.9.7.7,0,0,1-.7-.6c-.2-.5-.2-.8.4-.9a3.4,3.4,0,0,1,2.2.4l1.7,1.1,1.3.7a1.2,1.2,0,0,0,1.8-1,4.7,4.7,0,0,0,.2-1.7,12.8,12.8,0,0,1,.1-1.9,2.8,2.8,0,0,1,4.2-2.3,21.2,21.2,0,0,1,2,1.2c.7.4,1.4,1.1,2.4.6s.8-1.4.8-2.3a14.1,14.1,0,0,1,.1-2c.2-2.5,2.2-3.6,4.4-2.4l2.3,1.4c1.6.9,2.5.4,2.7-1.4V43.6a4,4,0,0,1,.8-2.3c.2-.2.4-.6.8-.4s.7.7.5,1-.5,2.8-.7,4.2S129.7,49.3,127.9,49.2Z" transform="translate(-32.9 -26.1)"/><path class="cls-6" d="M145.7,325.1h1.2c.4,0,.8-.1.9.6s-.4.8-.9.8h-2.2c-.3,0-.6-.1-.8.2s.3.5.5.7l1.7,1.6c.5.4.3.7,0,1.1s-.6.3-1,0a18,18,0,0,0-2-1.9q-.6-.4-.6.3a22.6,22.6,0,0,0,.1,2.6c0,.5-.1.8-.7.9s-.8-.3-.8-.8a21.7,21.7,0,0,0-.1-2.6c0-.2,0-.4-.2-.5s-.4.1-.5.2l-1.9,2c-.3.4-.6.3-.9,0s-.5-.6-.1-1l1.9-2.1c.1-.1.2-.2.2-.3s-.2-.3-.4-.3h-2.8c-.4,0-.7-.1-.7-.6s.1-.9.7-.9H139c.2,0,.4,0,.5-.3s-.2-.2-.2-.3l-2-1.9c-.4-.3-.5-.6-.1-1.1s.7-.3,1.1.1l1.9,1.8c.1.1.3.3.5.2s.1-.4.1-.6v-2.6c-.1-.5.1-.8.7-.8s.7.3.7.8.1,1.8.1,2.7a.6.6,0,0,0,.1.4.4.4,0,0,0,.5-.2l1.9-2c.3-.3.6-.5,1-.1s.5.7.1,1.1l-2,2.1c-.3.3-.2.5.2.5Z" transform="translate(-32.9 -26.1)"/><path class="cls-6" d="M36.5,174.3A9.3,9.3,0,0,1,35,173a2.8,2.8,0,0,1,.5-4.2,17.5,17.5,0,0,1,2.4-1.1,3.7,3.7,0,0,0,2-1.3c.2-.4.5-.3.8-.2s.7.2.5.7a3.6,3.6,0,0,1-1.4,1.6l-1.9.8a6.1,6.1,0,0,0-1.4.7,1.2,1.2,0,0,0-.3,2.1,13,13,0,0,0,1.8,1.5l1.2,1a2.7,2.7,0,0,1-.7,4.5l-1.7.8a9.4,9.4,0,0,0-1.5.6c-1.1.6-1.2,1.5-.3,2.4a11,11,0,0,0,1.8,1.4,4.8,4.8,0,0,1,1.8,2.2c.1.3.3.8,0,1s-1.1.1-1.2-.2-1.9-2-3-2.9l-.6-.6a2.7,2.7,0,0,1,.6-4.4,9.5,9.5,0,0,1,2.5-1.1c.7-.4,1.6-.6,1.7-1.6s-.7-1.4-1.4-1.9Z" transform="translate(-32.9 -26.1)"/><path class="cls-6" d="M229.4,315.2c-.1.2-.1.4-.2.5l-3.2,5.8c-.3.6-.7.8-1.3.4s-2.1-1-2.9-1.8a24.9,24.9,0,0,1,1.5-2.8l2-3.7c.3-.6.6-.6,1.1-.3l2.5,1.4C229.1,314.8,229.4,314.9,229.4,315.2Z" transform="translate(-32.9 -26.1)"/><path class="cls-6" d="M130.3,28.4a1.7,1.7,0,0,1-.2.5c-.5,1.1-1,2.3-1.4,3.4s-.5.7-1.1.5L124,31.3c-.5-.2-.6-.5-.4-1l1.5-3.6a.8.8,0,0,1,1.1-.5l3.6,1.6C130,27.9,130.3,28,130.3,28.4Z" transform="translate(-32.9 -26.1)"/><path class="cls-6" d="M117.9,66.2a3.4,3.4,0,0,1,3.4,3.6,3.4,3.4,0,0,1-6.8-.2A3.4,3.4,0,0,1,117.9,66.2Zm2,3.4a1.9,1.9,0,0,0-2.1-1.9,1.9,1.9,0,0,0-1.9,1.9,1.9,1.9,0,0,0,2,2A2,2,0,0,0,119.9,69.6Z" transform="translate(-32.9 -26.1)"/><path class="cls-6" d="M480.1,58.7a11.1,11.1,0,0,1,1.1-1.6,2.7,2.7,0,0,1,4.2.1,8,8,0,0,1,1.3,2.2,4,4,0,0,0,1.5,1.9c.5.2.4.5.4.8s-.2.7-.7.6a2.8,2.8,0,0,1-1.7-1.3,16.2,16.2,0,0,1-1-1.8c-.3-.4-.5-.9-.8-1.4a1.3,1.3,0,0,0-2.2,0,9.1,9.1,0,0,0-1.3,1.9,5.1,5.1,0,0,1-.9,1.3,2.7,2.7,0,0,1-4.5-.3,12.9,12.9,0,0,1-.9-1.6c-.3-.5-.5-1-.8-1.4s-1.7-1.1-2.5-.1a13.2,13.2,0,0,0-1.2,2,4.6,4.6,0,0,1-2,1.9c-.3.2-.7.4-.9.1s-.3-1,0-1.2,1.8-2.1,2.6-3.2l.5-.7a2.8,2.8,0,0,1,4.5.1,18.8,18.8,0,0,1,1.4,2.4c.4.7.7,1.6,1.7,1.6s1.3-.9,1.7-1.6Z" transform="translate(-32.9 -26.1)"/><path class="cls-6" d="M419.9,41.4a3.4,3.4,0,0,1-3.5-3.3,3.4,3.4,0,0,1,3.4-3.6,3.4,3.4,0,0,1,3.5,3.5A3.4,3.4,0,0,1,419.9,41.4Zm0-1.5a1.9,1.9,0,0,0,1.9-2.1,2,2,0,0,0-4,.2A2,2,0,0,0,419.9,39.9Z" transform="translate(-32.9 -26.1)"/><path class="cls-6" d="M106.6,309a3.9,3.9,0,0,1-.8,2,21.2,21.2,0,0,0-1.2,2c-.8,1.4-.3,2.2,1.3,2.4h1.4a6.5,6.5,0,0,1,2,.2,2.8,2.8,0,0,1,2.1,3.9,17.4,17.4,0,0,1-1.1,1.8c-.5.9-1.4,1.7-.9,2.8s1.8.8,2.7.8a8.6,8.6,0,0,1,2.3.2,2.7,2.7,0,0,1,2.1,3.7,22.5,22.5,0,0,1-1.2,2.1,3.4,3.4,0,0,0-1,2.3c0,.5-.3.6-.6.8s-.7.2-.8-.4a3.4,3.4,0,0,1,.4-2.2,9.9,9.9,0,0,1,1.1-1.7,13.9,13.9,0,0,0,.6-1.3,1.3,1.3,0,0,0-.9-1.9l-1.7-.2h-1.9a2.8,2.8,0,0,1-2.3-4.2,21.2,21.2,0,0,1,1.2-2c.4-.7,1.1-1.5.6-2.4s-1.5-.8-2.3-.8h-2c-2.5-.2-3.6-2.2-2.5-4.4s1-1.6,1.5-2.4.4-2.5-1.4-2.6H101a4.9,4.9,0,0,1-2.3-.8c-.3-.2-.6-.4-.5-.8s.8-.7,1.1-.5,2.8.5,4.2.6S106.6,307.2,106.6,309Z" transform="translate(-32.9 -26.1)"/><path class="cls-6" d="M524.6,165.6a3.5,3.5,0,0,1,6.9.1,3.4,3.4,0,0,1-3.6,3.4A3.3,3.3,0,0,1,524.6,165.6Zm3.4-1.9a1.9,1.9,0,0,0-1.9,2.1,1.9,1.9,0,0,0,1.9,1.8,1.8,1.8,0,0,0,2-1.9A1.9,1.9,0,0,0,528,163.7Z" transform="translate(-32.9 -26.1)"/><path class="cls-6" d="M615.4,100.1l1.1.8a.5.5,0,0,1,.2.9c-.2.4-.5.6-.9.3l-2.4-1.5a.4.4,0,0,0-.5-.1c-.2.1-.1.3-.1.5l.6,2.7c.2.5,0,.7-.4.8s-.9.1-1-.5l-.6-2.8c-.1-.4-.4-.5-.6-.1l-1.5,2.3c-.2.4-.5.7-1,.3s-.5-.7-.2-1.1l1.4-2.2c.1-.2.3-.4.1-.5h-.4l-2.6.6c-.4.1-.9.3-1-.5s.1-.8.7-.9l2.4-.6c.2,0,.5,0,.5-.3s-.3-.3-.4-.5l-2-1.2c-.4-.3-.9-.5-.4-1.1s.7-.5,1.2-.2l2.1,1.4c.2.1.4.3.5.1a.6.6,0,0,0,.1-.4l-.6-2.5c-.1-.5-.3-1,.5-1.1s.8.1.9.7l.6,2.5c0,.2,0,.4.3.4s.3-.1.4-.3l1.4-2.2a.6.6,0,0,1,1-.3c.5.3.5.6.2,1.1a17.4,17.4,0,0,0-1.1,1.8c-.2.3-.6.6-.4.9s.7,0,1.1-.1l2.1-.4c.4-.2.7-.1.8.4s.1.9-.5,1l-2.8.6c-.4.1-.5.3-.2.6l1.4.9Z" transform="translate(-32.9 -26.1)"/><path class="cls-6" d="M598.1,229.5l-1.9.5a2.7,2.7,0,0,1-3.2-2.7,10.1,10.1,0,0,1,.4-2.5,3.9,3.9,0,0,0,0-2.4c-.2-.4.1-.7.3-.9s.6-.4.9,0a3.1,3.1,0,0,1,.4,2.1,16.2,16.2,0,0,1-.3,2,7.7,7.7,0,0,0-.2,1.5c0,1.1.6,1.7,1.6,1.5l2.2-.7,1.5-.5a2.8,2.8,0,0,1,3.4,3.1,11.3,11.3,0,0,1-.3,1.8l-.3,1.6c-.1,1.3.6,1.9,1.9,1.6a18.7,18.7,0,0,0,2.2-.7,3.9,3.9,0,0,1,2.8-.3c.3.1.8.2.7.6s-.4.9-.8.8-2.7.6-4,.9l-.8.2a2.7,2.7,0,0,1-3.4-2.9,12.6,12.6,0,0,1,.4-2.7c.2-.8.4-1.7-.3-2.3s-1.6-.2-2.4.1Z" transform="translate(-32.9 -26.1)"/><path class="cls-6" d="M163.6,275.9a3.4,3.4,0,0,1,.9,4.9,3.6,3.6,0,0,1-4.8.8,3.4,3.4,0,0,1-.8-4.9A3.4,3.4,0,0,1,163.6,275.9Zm-.2,3.9a1.9,1.9,0,0,0-.7-2.7,1.8,1.8,0,0,0-2.6.5,1.9,1.9,0,0,0,.5,2.8A2,2,0,0,0,163.4,279.8Z" transform="translate(-32.9 -26.1)"/><path class="cls-6" d="M441,315.7a5.2,5.2,0,0,1,2,.9l1.9,1.4c1.3.8,2.2.3,2.5-1.2s.1-1,.1-1.4a6.4,6.4,0,0,1,.3-2,2.8,2.8,0,0,1,4-1.9l1.8,1.2c.8.6,1.5,1.5,2.6,1.1s1-1.7,1-2.7a15.7,15.7,0,0,1,.4-2.3,2.6,2.6,0,0,1,3.7-1.8,9.2,9.2,0,0,1,2.1,1.3,3.8,3.8,0,0,0,2.3,1.1.7.7,0,0,1,.7.6c.2.5.1.8-.4.8a2.8,2.8,0,0,1-2.2-.5l-1.7-1.1-1.2-.8a1.3,1.3,0,0,0-1.9.8,5.5,5.5,0,0,0-.3,1.7,11.1,11.1,0,0,1-.2,1.9,2.7,2.7,0,0,1-4.3,2.1l-1.9-1.3c-.7-.5-1.4-1.2-2.4-.8s-.8,1.4-.9,2.3-.1,1.3-.2,2c-.4,2.5-2.4,3.4-4.6,2.2l-2.2-1.6c-1.5-1-2.5-.6-2.7,1.2a9,9,0,0,0-.2,2.3,4.1,4.1,0,0,1-.9,2.3c-.2.2-.5.6-.8.4s-.7-.8-.5-1.1.7-2.8.9-4.2S439.3,315.6,441,315.7Z" transform="translate(-32.9 -26.1)"/><path class="cls-6" d="M617.6,331.7l-.6-1.1c-.3-.4-.2-.7.2-1a.7.7,0,0,1,1,.2l1.3,2.4c.1.2.2.4.4.4s.3-.3.3-.4a27.6,27.6,0,0,0,.8-2.7c.1-.5.3-.6.8-.5s.8.3.6.9-.5,1.9-.8,2.8.1.6.5.4l2.4-1.3c.4-.3.8-.4,1.1.1s0,.9-.5,1.2l-2.2,1.2c-.2.1-.4.2-.3.4s.2.2.3.2l2.5.8c.5.1,1,.2.7.9s-.5.7-1,.5l-2.4-.7c-.2,0-.5-.2-.6,0s0,.5.1.7a19.8,19.8,0,0,1,1.1,2c.3.4.6.8-.1,1.2s-.8,0-1.1-.5a25.3,25.3,0,0,0-1.3-2.2c0-.2-.1-.4-.4-.3s-.1.2-.2.3-.5,1.7-.7,2.5-.2,1-.9.8-.7-.6-.5-1.1l.7-2.5c0-.2.1-.4-.1-.5s-.3,0-.5.1l-2.3,1.2c-.4.3-.7.4-1-.2a.6.6,0,0,1,.3-1l1.9-1.1c.3-.1.8-.2.7-.5s-.6-.4-.9-.5a16.6,16.6,0,0,0-2.1-.6c-.4-.1-.7-.3-.5-.8s.3-.8.9-.6l2.8.7c.3.1.6,0,.4-.4l-.8-1.4Z" transform="translate(-32.9 -26.1)"/><path class="cls-6" d="M619.3,214.1c-.2-.3-.2-.5,0-.7l3-3.2c.2-.3.5-.3.8,0l3.1,2.8a.6.6,0,0,1,0,1l-2.8,3c-.2.2-.4.4-.7.2Z" transform="translate(-32.9 -26.1)"/><path class="cls-6" d="M447.3,299.4a3.3,3.3,0,0,1,1.6-4.6,3.3,3.3,0,0,1,4.5,1.5,3.4,3.4,0,0,1-1.5,4.7A3.5,3.5,0,0,1,447.3,299.4Zm2.1-3.3a2.1,2.1,0,0,0-.7,2.8,1.9,1.9,0,0,0,2.6.7,1.8,1.8,0,0,0,.8-2.6A2,2,0,0,0,449.4,296.1Z" transform="translate(-32.9 -26.1)"/><path class="cls-6" d="M475.8,302.1a2.8,2.8,0,0,1,1.2-3.7,2.9,2.9,0,0,1,3.7,1.2,2.8,2.8,0,1,1-4.9,2.5Z" transform="translate(-32.9 -26.1)"/></g></g></g></svg>